<svg xmlns="http://www.w3.org/2000/svg" viewBox="0 0 176 124" width="176" height="124" role="img" aria-label="Jackson Office Supply logo"><title>Jackson Office Supply logo</title><rect width="176" height="124" fill="#14304F"/><path d="M63 18 H94 L104 28 V73 a3 3 0 0 1 -3 3 H63 a3 3 0 0 1 -3 -3 V21 a3 3 0 0 1 3 -3 Z" fill="#F5F7FA"/><path d="M94 18 V28 H104 Z" fill="#C5D0DD"/><rect x="67" y="36" width="30" height="3" fill="#9FB1C6"/><rect x="67" y="44" width="24" height="3" fill="#9FB1C6"/><rect x="67" y="52" width="30" height="3" fill="#9FB1C6"/><rect x="67" y="60" width="18" height="3" fill="#9FB1C6"/><g transform="translate(114 54) rotate(38)"><rect x="-4.5" y="-26" width="9" height="40" fill="#F5C242"/><rect x="-4.5" y="-26" width="3" height="40" fill="#E0A72B"/><polygon points="-4.5,14 4.5,14 0,25" fill="#F3D9B1"/><polygon points="-1.6,21.5 1.6,21.5 0,25" fill="#2B2B2B"/><rect x="-4.5" y="-30" width="9" height="4" fill="#B8C2CC"/><rect x="-4.5" y="-35" width="9" height="5" rx="2" fill="#F08A9B"/></g><text x="88" y="98.5" text-anchor="middle" font-family="'Helvetica Neue',Helvetica,Arial,sans-serif" font-weight="700" font-size="13" letter-spacing="1.6" fill="#FFFFFF">JACKSON</text><text x="88" y="110.5" text-anchor="middle" font-family="'Helvetica Neue',Helvetica,Arial,sans-serif" font-weight="600" font-size="7.5" letter-spacing="1.4" fill="#F5C242">OFFICE SUPPLY</text></svg>
